HIERARCHY
ROOT Hips
{
	OFFSET 0.000000 0.000000 0.000000
	CHANNELS 6 Xposition Yposition Zposition Zrotation Yrotation Xrotation 
	JOINT LHipJoint
	{
		OFFSET 0.000000 0.000000 0.000000
		CHANNELS 3 Zrotation Yrotation Xrotation
		JOINT LeftUpLeg
		{
			OFFSET 1.363060 -1.794630 0.839290
			CHANNELS 3 Zrotation Yrotation Xrotation
			JOINT LeftLeg
			{
				OFFSET 2.448110 -6.726130 0.000000
				CHANNELS 3 Zrotation Yrotation Xrotation
				JOINT LeftFoot
				{
					OFFSET 2.562200 -7.039590 0.000000
					CHANNELS 3 Zrotation Yrotation Xrotation
					JOINT LeftToeBase
					{
						OFFSET 0.157640 -0.433110 2.322550
						CHANNELS 3 Zrotation Yrotation Xrotation
						End Site
						{
							OFFSET 0.000000 0.000000 0.000000
						}
					}
				}
			}
		}
	}
	JOINT RHipJoint
	{
		OFFSET 0.000000 0.000000 0.000000
		CHANNELS 3 Zrotation Yrotation Xrotation
		JOINT RightUpLeg
		{
			OFFSET -1.305520 -1.794630 0.839290
			CHANNELS 3 Zrotation Yrotation Xrotation
			JOINT RightLeg
			{
				OFFSET -2.542530 -6.985550 0.000000
				CHANNELS 3 Zrotation Yrotation Xrotation
				JOINT RightFoot
				{
					OFFSET -2.568260 -7.056230 0.000000
					CHANNELS 3 Zrotation Yrotation Xrotation
					JOINT RightToeBase
					{
						OFFSET -0.164730 -0.452590 2.363150
						CHANNELS 3 Zrotation Yrotation Xrotation
						End Site
						{
							OFFSET 0.000000 0.000000 0.000000
						}
					}
				}
			}
		}
	}
	JOINT LowerBack
	{
		OFFSET 0.000000 0.000000 0.000000
		CHANNELS 3 Zrotation Yrotation Xrotation
		JOINT Spine
		{
			OFFSET 0.028270 2.035590 -0.193380
			CHANNELS 3 Zrotation Yrotation Xrotation
			JOINT Spine1
			{
				OFFSET 0.056720 2.048850 -0.042750
				CHANNELS 3 Zrotation Yrotation Xrotation
				JOINT Neck
				{
					OFFSET 0.000000 0.000000 0.000000
					CHANNELS 3 Zrotation Yrotation Xrotation
					JOINT Neck1
					{
						OFFSET -0.054170 1.746240 0.172020
						CHANNELS 3 Zrotation Yrotation Xrotation
						JOINT Head
						{
							OFFSET 0.104070 1.761360 -0.123970
							CHANNELS 3 Zrotation Yrotation Xrotation
							End Site
							{
								OFFSET 0.000000 0.000000 0.000000
							}
						}
					}
				}
				JOINT LeftShoulder
				{
					OFFSET 0.000000 0.000000 0.000000
					CHANNELS 3 Zrotation Yrotation Xrotation
					JOINT LeftArm
					{
						OFFSET 3.362410 1.200890 -0.311210
						CHANNELS 3 Zrotation Yrotation Xrotation
						JOINT LeftForeArm
						{
							OFFSET 4.983000 -0.000000 -0.000000
							CHANNELS 3 Zrotation Yrotation Xrotation
							JOINT LeftHand
							{
								OFFSET 3.483560 -0.000000 -0.000000
								CHANNELS 3 Zrotation Yrotation Xrotation
								JOINT LeftFingerBase
								{
									OFFSET 0.000000 0.000000 0.000000
									CHANNELS 3 Zrotation Yrotation Xrotation
									JOINT LeftHandIndex1
									{
										OFFSET 0.715260 -0.000000 -0.000000
										CHANNELS 3 Zrotation Yrotation Xrotation
										End Site
										{
											OFFSET 0.000000 0.000000 0.000000
										}
									}
								}
								JOINT LThumb
								{
									OFFSET 0.000000 0.000000 0.000000
									CHANNELS 3 Zrotation Yrotation Xrotation
									End Site
									{
										OFFSET 0.000000 0.000000 0.000000
									}
								}
							}
						}
					}
				}
				JOINT RightShoulder
				{
					OFFSET 0.000000 0.000000 0.000000
					CHANNELS 3 Zrotation Yrotation Xrotation
					JOINT RightArm
					{
						OFFSET -3.136600 1.374050 -0.404650
						CHANNELS 3 Zrotation Yrotation Xrotation
						JOINT RightForeArm
						{
							OFFSET -5.241900 -0.000000 -0.000000
							CHANNELS 3 Zrotation Yrotation Xrotation
							JOINT RightHand
							{
								OFFSET -3.444170 -0.000000 -0.000000
								CHANNELS 3 Zrotation Yrotation Xrotation
								JOINT RightFingerBase
								{
									OFFSET 0.000000 0.000000 0.000000
									CHANNELS 3 Zrotation Yrotation Xrotation
									JOINT RightHandIndex1
									{
										OFFSET -0.622530 -0.000000 -0.000000
										CHANNELS 3 Zrotation Yrotation Xrotation
										End Site
										{
											OFFSET 0.000000 0.000000 0.000000
										}
									}
								}
								JOINT RThumb
								{
									OFFSET 0.000000 0.000000 0.000000
									CHANNELS 3 Zrotation Yrotation Xrotation
									End Site
									{
										OFFSET 0.000000 0.000000 0.000000
									}
								}
							}
						}
					}
				}
			}
		}
	}
}
MOTION
Frames: 7
Frame Time: 0.008333
4.640919 18.082514 2.875430 -1.851326 -20.302268 0.448704 -2.999175 2.358171 1.839035 1.574308 -11.294026 -25.652302 0.199596 8.565550 21.787127 -5.003040 18.498397 17.005003 0.503100 -4.547100 -12.621200 2.812700 -3.529711 4.546258 16.813154 15.617956 -8.824136 -2.711689 -10.366422 34.971189 3.795720 -11.981666 -2.669406 -0.004900 0.452600 -1.243600 3.232564 -0.083576 24.945483 6.156758 1.127409 7.191636 6.891488 0.335422 -10.752135 -5.211604 -5.467373 -9.348060 -0.928994 -5.930909 23.849433 -1.654400 -3.097500 10.747700 -1.261650 -0.193962 -0.999362 -90.408764 18.071810 18.218143 32.333741 -41.018255 -14.078928 -0.035783 -2.133659 2.669249 13.860148 40.314362 9.439200 -7.125000 0.000000 0.000000 -35.265400 70.460100 -22.329300 0.830156 0.991291 0.618640 69.675705 13.779983 -28.730664 -12.924714 19.761031 -2.212074 -0.174888 0.286367 1.575973 -13.080744 -2.499590 0.638800 7.125000 0.000000 0.000000 11.067800 -32.701200 3.388700 
4.642566 18.087147 2.684881 -1.398463 -20.250491 0.312114 -2.920783 2.330036 1.950393 0.560459 -10.994749 -25.935080 0.496228 9.170372 23.951874 -4.512156 16.953944 16.105322 0.386700 -3.993400 -11.058100 2.749484 -3.462915 4.407236 16.532330 15.785996 -9.715380 -2.886519 -10.557396 35.571201 3.847362 -12.106233 -2.349344 -0.006200 0.508700 -1.397900 2.853377 -0.197107 25.043503 6.108900 0.863778 7.322618 7.090389 0.205090 -10.574502 -4.976217 -5.347538 -9.848988 -0.993088 -5.756301 23.817716 -1.721000 -3.006400 10.822800 -1.265387 -0.215708 -0.992909 -90.580677 17.694800 17.595527 32.681234 -41.276663 -14.326679 -0.022389 -2.151922 1.638491 14.365607 40.815139 9.904200 -7.125000 0.000000 0.000000 -35.713500 71.034200 -23.070800 0.825720 0.993349 0.617260 70.454293 13.956609 -28.719615 -13.524225 20.605882 -2.417615 -0.185089 0.296832 -0.562287 -13.788763 -1.894693 0.533300 7.125000 0.000000 0.000000 10.426900 -32.130500 3.332500 
4.648228 18.087044 2.481464 -1.378810 -20.099420 0.403946 -2.761985 2.287910 2.021756 -0.132709 -10.562489 -26.450302 0.853468 9.807914 26.122472 -4.028596 15.505936 15.319040 0.347300 -3.786700 -10.477200 2.671968 -3.363657 4.254010 16.726097 15.921054 -10.728663 -3.049230 -10.715237 36.134585 3.827372 -12.063429 -2.013514 0.000000 0.013500 -0.037100 3.013315 -0.243106 25.339824 6.242986 0.907311 7.172088 7.210348 0.223822 -10.932356 -5.116479 -5.378547 -9.572741 -1.108088 -5.783988 23.677297 -1.737900 -3.045200 10.713200 -1.238015 -0.221832 -0.997523 -90.896975 17.867219 17.548045 33.204080 -41.662889 -14.715465 0.018214 -2.178932 0.177286 14.652067 41.613514 10.268600 -7.125000 0.000000 0.000000 -37.111300 71.754600 -24.608600 0.826031 0.962977 0.605257 70.974357 13.333981 -29.099540 -14.320528 21.747840 -2.713308 -0.198496 0.314065 -2.741304 -14.393570 -1.363052 0.430000 7.125000 0.000000 0.000000 9.887100 -31.633300 3.275300 
4.654816 18.115868 2.302650 -0.867234 -19.950720 0.290994 -2.689137 2.273030 2.115551 -1.424614 -10.089311 -26.832498 1.247145 10.438089 28.381037 -3.715895 14.432789 14.423880 0.523900 -4.638800 -12.881300 2.602767 -3.287276 4.144585 16.310292 15.731675 -11.719278 -3.185406 -10.875097 36.598283 3.794608 -11.994063 -1.587578 -0.000700 -0.175700 0.482700 2.891892 -0.292277 25.482866 6.189978 0.840734 7.033746 7.266872 0.202314 -11.192518 -5.432329 -5.457060 -9.024275 -0.955040 -5.924224 23.392405 -1.612300 -3.125500 10.498700 -1.216320 -0.202934 -0.998453 -91.051786 18.173075 17.501800 33.715015 -42.043319 -15.106068 0.061932 -2.187988 -1.493214 15.064664 41.780433 10.612100 -7.125000 0.000000 0.000000 -37.033200 72.035300 -24.768900 0.811010 0.912930 0.597071 71.649280 11.995076 -26.860478 -15.592887 23.497269 -3.213501 -0.210861 0.343293 -7.447945 -15.614832 -1.533968 0.529800 7.125000 0.000000 0.000000 8.926500 -31.886800 2.894800 
4.660375 18.137692 2.116527 -0.506272 -19.736936 0.326443 -2.579165 2.248148 2.197001 -2.625039 -9.411067 -27.314002 1.673112 11.054688 30.606086 -3.384650 13.357608 13.624316 0.752200 -5.539500 -15.454000 2.523417 -3.197272 4.023532 16.043737 15.445179 -12.857507 -3.305967 -11.020000 37.003116 3.745848 -11.891610 -1.070120 -0.000900 -0.194500 0.534300 2.767607 -0.449178 25.480394 6.156468 0.601969 7.082238 7.360882 0.082935 -11.085377 -5.495095 -5.388289 -9.114171 -0.874849 -5.834968 23.032545 -1.558800 -3.090800 10.364800 -1.219105 -0.220092 -0.988190 -91.158286 17.857444 17.038563 33.926823 -42.195713 -15.265752 0.098566 -2.203395 -3.190348 15.532476 41.922384 11.000500 -7.125000 0.000000 0.000000 -36.847700 72.324900 -24.856400 0.801205 0.889028 0.597459 72.419832 11.700375 -25.851519 -16.673689 24.923903 -3.658509 -0.222164 0.359522 -10.687391 -17.093935 -1.350381 0.537400 7.125000 0.000000 0.000000 7.722600 -31.764200 2.520600 
4.667993 18.145413 1.933184 -0.068787 -19.588194 0.347649 -2.490662 2.248382 2.302556 -3.931622 -8.586904 -27.667425 2.112267 11.620287 32.732835 -3.138688 12.505826 12.853630 1.031200 -6.459200 -18.122600 2.448923 -3.119861 3.901963 15.663978 15.233365 -13.939954 -3.406421 -11.151272 37.331265 3.671369 -11.730053 -0.456348 -0.001400 -0.239200 0.657300 2.618841 -0.520715 25.440840 6.113132 0.467454 7.091752 7.411317 0.013364 -11.027092 -5.338929 -5.358368 -9.448795 -1.050819 -5.766219 23.000114 -1.659900 -3.065300 10.410200 -1.218593 -0.228703 -0.984743 -91.205485 17.633175 16.790233 34.046280 -42.281760 -15.359679 0.148524 -2.224848 -5.199669 15.908079 42.205426 11.353600 -7.125000 0.000000 0.000000 -37.103500 72.690700 -25.321900 0.795889 0.867423 0.591406 73.205613 11.245922 -25.730775 -17.771779 26.354958 -4.141348 -0.237158 0.375943 -12.821565 -18.254564 -1.016292 0.477000 7.125000 0.000000 0.000000 6.768000 -31.470500 2.253000 
4.674890 18.157148 1.761783 0.364467 -19.548941 0.322022 -2.417331 2.280937 2.432310 -5.216969 -7.784834 -27.811328 2.566355 12.142300 34.794690 -3.004670 11.880750 11.776225 1.155900 -6.826100 -19.201100 2.383659 -3.067127 3.788248 15.267343 15.211752 -14.795259 -3.483022 -11.258442 37.580645 3.567687 -11.498923 0.138898 -0.011300 -0.686700 1.887000 2.476066 -0.524727 25.417882 6.069461 0.428464 7.059004 7.410181 -0.012521 -11.040986 -4.760445 -5.399047 -10.224475 -1.766205 -5.738076 23.458114 -2.080500 -3.066000 10.733700 -1.205260 -0.223560 -0.993588 -91.240901 17.633247 16.708244 34.228437 -42.414178 -15.503291 0.176470 -2.238849 -6.974643 16.681922 42.322265 11.976400 -7.125000 0.000000 0.000000 -36.519400 73.077100 -25.184500 0.798230 0.843091 0.575715 73.930371 10.409450 -25.777290 -18.961596 27.877384 -4.701350 -0.255182 0.397137 -14.498203 -18.953712 -0.829333 0.444200 7.125000 0.000000 0.000000 6.199300 -31.321700 2.083900 
